{"title":"[ShepardTDS] Spirited Away [720p 8-bit x265 HEVC]","uid":12631808,"size":1403854779,"categoryP":"video","categoryS":"movies","magnet":"?xt=urn:btih:a45cc80014ad7b95d53451415c4ab906bba45b86&amp;dn=%5BShepardTDS%5D+Spirited+Away+%5B720p+8-bit+x265+HEVC%5D&amp;tr=udp%3A%2F%2Ftracker.leechers-paradise.org%3A6969&amp;tr=udp%3A%2F%2Fzer0day.ch%3A1337&amp;tr=udp%3A%2F%2Fopen.demonii.com%3A1337&amp;tr=udp%3A%2F%2Ftracker.coppersurfer.tk%3A6969&amp;tr=udp%3A%2F%2Fexodus.desync.com%3A6969","seeders":0,"leechers":0,"uploader":"ShepardTDS","files":1,"time":1445856961,"description":"ITS ACTUALLY 688 in height but i figured it was close enough to 720.\r\n\r\nGeneral\r\n\r\nFormat : Matroska\r\nFile size : 1.31 GiB\r\nDuration : 2h 4mn\r\nOverall bit rate : 1 503 Kbps\r\nEncoded date : UTC 2015-10-25 16:37:28\r\nWriting application : mkvmerge v7.7.0 ('Six Voices') 32bit built on Feb 28 2015 23:23:00\r\nWriting library : libebml v1.3.1 + libmatroska v1.4.2\r\n\r\nVideo\r\nID : 1\r\nFormat : V_MPEGH/ISO/HEVC\r\nCodec ID : V_MPEGH/ISO/HEVC\r\nDuration : 2h 4mn\r\nBit rate : 1 089 Kbps\r\nWidth : 1 280 pixels\r\nHeight : 688 pixels\r\nDisplay aspect ratio : 1.860\r\nFrame rate : 23.976 fps\r\nBits/(Pixel*Frame) : 0.052\r\nStream size : 970 MiB (72%)\r\n\r\nAudio #1\r\nID : 2\r\nFormat : AC-3\r\nFormat/Info : Audio Coding 3\r\nMode extension : CM (complete main)\r\nCodec ID : A_AC3\r\nDuration : 2h 4mn\r\nBit rate mode : Constant\r\nBit rate : 192 Kbps\r\nChannel(s) : 6 channels\r\nChannel positions : Front: L C R, Side: L R, LFE\r\nSampling rate : 48.0 KHz\r\nBit depth : 16 bits\r\nCompression mode : Lossy\r\nStream size : 171 MiB (13%)\r\nLanguage : English\r\n\r\nAudio #2\r\nID : 3\r\nFormat : AC-3\r\nFormat/Info : Audio Coding 3\r\nMode extension : CM (complete main)\r\nCodec ID : A_AC3\r\nDuration : 2h 4mn\r\nBit rate mode : Constant\r\nBit rate : 192 Kbps\r\nChannel(s) : 6 channels\r\nChannel positions : Front: L C R, Side: L R, LFE\r\nSampling rate : 48.0 KHz\r\nBit depth : 16 bits\r\nCompression mode : Lossy\r\nStream size : 171 MiB (13%)\r\nLanguage : Japanese\r\n\r\nText #1\r\nID : 4\r\nFormat : ASS\r\nCodec ID : S_TEXT/ASS\r\nCodec ID/Info : Advanced Sub Station Alpha\r\nCompression mode : Lossless\r\nTitle : Signs &amp; Songs\r\nLanguage : English\r\n\r\nText #2\r\nID : 5\r\nFormat : PGS\r\nMuxing mode : zlib\r\nCodec ID : S_HDMV/PGS\r\nCodec ID/Info : The same subtitle format used on BDs/HD-DVDs\r\nTitle : English Subs (Retail US-BD)\r\nLanguage : English\r\n\r\nText #3\r\nID : 6\r\nFormat : ASS\r\nCodec ID : S_TEXT/ASS\r\nCodec ID/Info : Advanced Sub Station Alpha\r\nCompression mode : Lossless\r\nTitle : English Subs\r\nLanguage : English\r\n\r\nText #4\r\nID : 7\r\nFormat : PGS\r\nMuxing mode : zlib\r\nCodec ID : S_HDMV/PGS\r\nCodec ID/Info : The same subtitle format used on BDs/HD-DVDs\r\nTitle : English SDH (Retail US-BD)\r\nLanguage : English\r\n\r\nMenu\r\n00:00:00.000 : en:00:00:00.000\r\n00:01:39.099 : en:00:01:39.099\r\n00:03:16.238 : en:00:03:16.238\r\n00:07:23.526 : en:00:07:23.526\r\n00:10:45.395 : en:00:10:45.395\r\n00:17:03.022 : en:00:17:03.022\r\n00:22:48.534 : en:00:22:48.534\r\n00:28:36.048 : en:00:28:36.048\r\n00:33:28.173 : en:00:33:28.173\r\n00:38:21.674 : en:00:38:21.674\r\n00:44:11.816 : en:00:44:11.816\r\n00:48:26.821 : en:00:48:26.821\r\n00:54:31.351 : en:00:54:31.351\r\n01:02:09.017 : en:01:02:09.017\r\n01:08:11.587 : en:01:08:11.587\r\n01:14:36.847 : en:01:14:36.847\r\n01:19:10.579 : en:01:19:10.579\r\n01:25:39.760 : en:01:25:39.760\r\n01:31:18.890 : en:01:31:18.890\r\n01:37:33.806 : en:01:37:33.806\r\n01:45:18.937 : en:01:45:18.937\r\n01:50:25.118 : en:01:50:25.118\r\n01:52:51.098 : en:01:52:51.098\r\n01:55:14.199 : en:01:55:14.199\r\n02:00:53.580 : en:02:00:53.580","torrent":{"xt":"urn:btih:a45cc80014ad7b95d53451415c4ab906bba45b86","amp;dn":"%5BShepardTDS%5D+Spirited+Away+%5B720p+8-bit+x265+HEVC%5D","amp;tr":["udp%3A%2F%2Ftracker.leechers-paradise.org%3A6969","udp%3A%2F%2Fzer0day.ch%3A1337","udp%3A%2F%2Fopen.demonii.com%3A1337","udp%3A%2F%2Ftracker.coppersurfer.tk%3A6969","udp%3A%2F%2Fexodus.desync.com%3A6969"],"infoHash":"a45cc80014ad7b95d53451415c4ab906bba45b86","infoHashBuffer":{"type":"Buffer","data":[164,92,200,0,20,173,123,149,213,52,81,65,92,74,185,6,187,164,91,134]},"announce":[],"urlList":[]}}